{"title":"Penthouse.The.Perfect.Woman.XXX.720p.WEBRiP.WMV-TBP","uid":11729322,"size":6542892377,"categoryP":"porn","categoryS":"movies","magnet":"?xt=urn:btih:e98faf34367d6d528c4e2ff0c8446729def262d8&amp;dn=Penthouse.The.Perfect.Woman.XXX.720p.WEBRiP.WMV-TBP&amp;tr=udp%3A%2F%2Ftracker.openbittorrent.com%3A80&amp;tr=udp%3A%2F%2Fopen.demonii.com%3A1337&amp;tr=udp%3A%2F%2Ftracker.coppersurfer.tk%3A6969&amp;tr=udp%3A%2F%2Fexodus.desync.com%3A6969","seeders":0,"leechers":1,"uploader":"sceneline","files":69,"time":1425225847,"description":" &lt;a href=&quot;https://www.scenetime&quot; rel=&quot;nofollow&quot; target=&quot;_NEW&quot;&gt;https://www.scenetime&lt;/a&gt; dot com\n\nSign up is OPEN - for time being. Come and have fun.\n\nplease seed back as long as possible.\n\nfor info read NFO file\n\n================== NFO====================\n                  THE.BEST.PORN.GIVES \n\n\nPenthouse.The.Perfect.Woman.XXX.720p.WEBRiP.WMV-TBP \n\nWEBSITE     : http://www.data18.com/search/?k=the+perfect+woman&amp;b=1&amp;t=0&amp;ref=4\nTYPE        : WMV \nSIZE        : 65 x 100MB \n\nContent:\nPlease note: These results are based on original title from updates. Provided by site owner.\nThe Perfect Woman 6: Chatter Box\nThe Perfect Woman 5: Let's Do It Together\nThe Perfect Woman 4: His Little Secret\nThe Perfect Woman 3: No Questions Asked\nThe Perfect Woman 2: Gun Club Social\nThe Perfect Woman 1: Bachelor Pad\n\nGeneral\nComplete name                            : tbp.ptepw.wmv\nFormat                                   : Windows Media\nFile size                                : 6.01 GiB\nDuration                                 : 1h 46mn\nOverall bit rate                         : 8 106 Kbps\nMaximum Overall bit rate                 : 32.0 Kbps\nEncoded date                             : UTC 1970-01-01 00:00:00.000\nWM/EncodingSettings                      : Lavf56.4.101\n\nVideo\nID                                       : 1\nFormat                                   : WMV2\nCodec ID                                 : WMV2\nCodec ID/Info                            : Windows Media Video 8\nDescription of the codec                 : wmv2\nDuration                                 : 1h 46mn\nBit rate                                 : 7 744 Kbps\nWidth                                    : 1 280 pixels\nHeight                                   : 720 pixels\nDisplay aspect ratio                     : 16:9\nFrame rate                               : 29.970 fps\nBit depth                                : 8 bits\nBits/(Pixel*Frame)                       : 0.280\nStream size                              : 5.74 GiB (96%)\n\nAudio\nID                                       : 2\nFormat                                   : WMA\nFormat version                           : Version 2\nCodec ID                                 : 161\nCodec ID/Info                            : Windows Media Audio\nDescription of the codec                 : Windows Media Audio V8\nDuration                                 : 1h 46mn\nBit rate                                 : 32.0 Kbps\nChannel(s)                               : 1 channel\nSampling rate                            : 48.0 KHz\nBit depth                                : 16 bits\nStream size                              : 24.3 MiB (0%)\n\n\nREVIEW-URL  :  \n\n  Greetz to our good friends in GUSH \n   And the others which make this fun","torrent":{"xt":"urn:btih:e98faf34367d6d528c4e2ff0c8446729def262d8","amp;dn":"Penthouse.The.Perfect.Woman.XXX.720p.WEBRiP.WMV-TBP","amp;tr":["udp%3A%2F%2Ftracker.openbittorrent.com%3A80","udp%3A%2F%2Fopen.demonii.com%3A1337","udp%3A%2F%2Ftracker.coppersurfer.tk%3A6969","udp%3A%2F%2Fexodus.desync.com%3A6969"],"infoHash":"e98faf34367d6d528c4e2ff0c8446729def262d8","infoHashBuffer":{"type":"Buffer","data":[233,143,175,52,54,125,109,82,140,78,47,240,200,68,103,41,222,242,98,216]},"announce":[],"urlList":[]}}